<?xml version="1.0" standalone="no"?><!DOCTYPE svg PUBLIC "-//W3C//DTD SVG 1.1//EN" "http://www.w3.org/Graphics/SVG/1.1/DTD/svg11.dtd"><svg t="1714271648723" class="icon" viewBox="0 0 1164 1024" version="1.1" xmlns="http://www.w3.org/2000/svg" p-id="33576" xmlns:xlink="http://www.w3.org/1999/xlink" width="227.34375" height="200" fill="currentColor" stroke="currentColor"><path d="M190.219197 361.309164c0.321464-3.273091 0.935169-6.984543 1.022841-10.725218 0.584481-26.272401 4.091364-52.252562 7.68592-78.261947 3.886796-28.201187 10.754442-55.730221 17.475968-83.288479 3.097747-12.654004 6.955319-25.132664 10.812891-37.5821 1.578098-5.084981 4.149812-9.877721 6.078597-14.845806 5.377221-13.793741 9.760825-28.084291 16.219336-41.381223 13.092364-27.003002 26.827658-53.772211 47.196805-76.303937 6.107822-6.75075 12.7709-13.004692 21.391988-16.657696 5.815582-2.484042 11.689611-2.893179 17.826657-1.373529 14.524342 3.594555 28.142739 9.380913 40.913639 17.066832 16.657696 10.023842 33.549184 19.696995 48.570335 32.321775 23.905255 20.047683 46.14474 41.585792 64.409757 67.010696 4.471276 6.224718 9.234793 12.244868 14.29055 18.93717 6.02015-0.496808 12.215644-0.876721 18.381913-1.578098 7.335231-0.847497 14.58279-1.168961 21.801125 0.818273 1.344305 0.379912 2.834731 0.467584 4.237484 0.467584 27.64593-0.350688 54.795052 3.360763 81.856502 8.767209 25.39568 5.084981 50.937481 9.614705 75.368768 18.440361 9.059449 3.273091 17.885105 7.159887 26.798433 10.871339 9.877721 4.120588 19.755443 8.328848 29.574717 12.595556 2.951627 1.285857 5.406445 0.876721 7.948935-1.081289 7.101439-5.377221 13.910637-11.338923 21.596557-15.722527 8.796432-4.997309 18.148121-9.351689 27.762826-12.507884 25.337232-8.2704 51.258945-14.29055 77.735914-17.768209 5.990926-0.789049 12.098748-1.168961 18.148122-1.227409 3.477659 0 6.984543 0.993617 10.491426 1.519649 1.753442 0.263016 3.477659 0.701377 5.231101 0.642929 6.516958-0.14612 11.485043 2.630163 14.670462 8.12428 1.782666 3.068523 3.331539 6.400062 4.20826 9.790049 3.156195 12.244868 7.130663 24.255943 7.481351 37.172963 0.526033 19.609323 2.39637 39.189421 2.630162 58.798744 0.263016 21.859573-2.951627 43.397681-9.264017 64.409758-1.227409 4.091364-1.285857 8.56264-2.893178 12.449436-3.740676 9.059449-8.095056 17.885105-12.215644 26.798433-0.876721 1.928786-1.841114 3.828348-2.747059 5.669462 0.613705 1.256633 0.935169 2.279474 1.548874 3.126971 7.130663 10.257634 9.059449 21.947245 9.614705 34.075216 0.818273 18.265017-0.818273 36.383915-3.448435 54.444364-0.175344 1.198185-0.730601 2.308698-1.315082 4.06214-2.045682-0.555257-3.886796-0.964393-5.669461-1.548874-12.566332-4.06214-25.074216-8.41652-37.72822-12.157195-9.760825-2.893179-19.726219-5.084981-29.60394-7.452127-15.401063-3.711452-31.065142-4.325156-46.816893-4.354381-2.980851 0-5.961702-0.29224-9.497809-0.496808-1.052065-3.536107-1.987234-6.721526-2.922403-9.906945-1.636546-5.640237-2.600938-11.631163-5.08498-16.891489-3.302315-7.042991-7.773591-13.530725-11.806508-20.193803-0.43836-0.701377-1.227409-1.373529-2.016458-1.694993-7.422903-3.010075-14.816582-6.107822-22.356381-8.884105-3.740676-1.373529-7.335231-0.584481-10.549874 1.987234-7.802815 6.224718-15.780975 12.244868-23.496118 18.586482-9.439361 7.744367-19.433979 14.58279-30.53911 19.66777-13.150813 6.02015-26.389297 11.894179-39.569333 17.797433-13.647621 6.137046-27.879723 10.053066-42.842425 10.929787-9.264017 0.526033-18.557258 0.730601-27.821275 0.993617-12.47866 0.379912-24.986544 1.285857-37.465203 0.905945-21.245868-0.613705-41.731912-4.968085-61.078219-14.29055-13.267709-6.400062-21.742677-16.745368-26.184729-30.305317-2.074906-6.341614-2.980851-13.209261-3.419211-19.930787-0.555257-8.533416 0.058448-17.154504-0.175344-25.717144-0.43836-15.313391 1.987234-30.246869 5.640237-45.034227 0.43836-1.724218 0.730601-3.477659 1.022841-5.231101 0.058448-0.263016-0.29224-0.584481-0.7306-1.431978-2.279474 1.344305-4.617396 2.54249-6.779975 4.003692-19.141738 12.800124-38.225028 25.746369-57.425214 38.458821-5.932478 3.945244-12.157196 7.510575-18.411138 10.929786-5.961702 3.214643-11.660387 2.54249-15.956319-1.315081-5.055757-4.529724-6.253942-11.280475-2.513267-16.949936 1.607322-2.454818 3.886796-4.763517 6.341614-6.400062 16.949936-11.280475 33.987544-22.385605 51.054377-33.490736 16.891488-10.988234 33.607632-22.356381 50.879033-32.701687 11.105131-6.663078 22.181037-13.647621 35.331849-16.277784 6.253942-1.256633 12.127972-4.325156 18.35269-5.786357 15.810199-3.7699 31.85419-3.389987 47.956629-1.95801 9.410137 0.847497 18.878722 0.847497 28.259635 1.841114 8.328848 0.905945 16.716144 2.016458 24.781976 4.179035 16.745368 4.471276 33.753752 7.744367 50.674464 11.368147 15.16727 3.273091 30.042301 7.890488 44.975779 12.157196 27.382914 7.802815 53.392299 19.141738 79.401684 30.597557 18.118897 8.007384 36.939171 14.407446 55.116516 22.297933 13.735293 5.961702 26.944554 13.121589 40.358383 19.784667 2.367146 1.168961 4.64662 2.454818 7.393679 3.886796 1.344305-1.987234 2.600938-3.477659 3.448435-5.172653 3.536107-6.984543 7.656695-13.764517 8.358072-21.859573 0.087672-1.052065 0.409136-2.133354 0.818273-3.097747 11.514267-27.996619 12.127972-57.425215 11.222027-86.970707-0.409136-13.706069-1.519649-27.470586-3.156195-41.088983-1.022841-8.591864-3.594555-17.008384-5.523342-25.775592-5.669461 0.29224-10.66677 0.175344-15.517958 0.905944-14.641238 2.191802-29.370148 4.149812-43.806818 7.306007-15.839423 3.477659-31.795742 6.896871-46.670773 13.85219-0.175344 0.087672-0.350688 0.116896-0.496808 0.204568-7.598247 4.821965-15.196494 9.673153-23.496118 14.962702 1.81189 1.285857 3.302315 2.367146 4.821964 3.448435 5.698685 4.003692 11.572715 7.773591 17.008384 12.069524 7.189111 5.698685 7.715143 15.196494 1.578098 21.099748-3.974468 3.828348-8.679536 4.880413-13.822965 2.922403-2.308698-0.876721-4.5005-2.191802-6.487735-3.682228-16.307008-12.098748-34.045992-21.596557-52.574026-29.720836-9.819273-4.295932-19.580099-8.679536-29.45782-12.887796-19.463203-8.2704-39.598558-14.407446-60.318393-18.64493-16.803816-3.448435-33.636856-6.779974-50.557568-9.527033-20.281475-3.302315-40.738295-5.143429-61.341235-4.705069-6.75075 0.14612-13.443053 0.409136-20.252251-0.116896-5.961702-0.467584-12.040299 0.964393-18.089673 1.607322-1.95801 0.204568-3.886796 0.672153-5.844806 0.847496-6.078598 0.526033-11.105131-1.636546-13.910637-7.072214-6.867647-13.296933-16.365456-24.723528-25.600249-36.267019-14.202878-17.738985-30.480661-33.461512-47.927405-48.10275-16.83304-14.115205-35.536418-25.191112-54.502812-35.828658-6.955319-3.886796-14.845806-6.078598-22.26871-9.088673-3.91602-1.578098-7.422903-1.110513-10.199185 2.133355-7.159887 8.41652-14.845806 16.453128-21.128972 25.483352-6.487734 9.322465-11.864955 19.492427-17.212953 29.574716-5.786358 10.871338-11.718835 21.742677-16.219335 33.169272-10.169962 25.717145-20.135355 51.609633-26.710762 78.524962-5.114205 20.982852-10.286858 42.024152-13.764517 63.299245-3.536107 21.625781-7.685919 43.222337-8.328848 65.286478-0.43836 14.962702-2.016458 29.89618-2.834731 44.888107-0.379912 7.013767-3.886796 11.777283-9.906945 14.758134-14.670462 7.276783-27.64593 16.949936-40.007694 27.49981-20.632164 17.622089-41.468896 35.010385-61.808819 52.983163-8.942553 7.890488-17.096056 16.716144-25.132664 25.5418a1413.712348 1413.712348 0 0 0-36.004002 41.088983c-6.31239 7.481351-11.748059 15.693303-17.592865 23.583791-1.578098 2.133354-2.980851 4.5005-4.909637 6.31239-4.412828 4.120588-10.316082 4.64662-15.371838 1.724217-4.938861-2.834731-7.861263-8.533416-6.458511-14.115205 0.876721-3.565331 2.513266-7.042991 4.412829-10.22841 8.241176-13.706069 18.907946-25.512576 29.45782-37.406756 9.351689-10.549874 18.79105-21.012076 27.996618-31.70807 12.654004-14.670462 27.06145-27.412138 41.965704-39.715454 12.537108-10.316082 24.577407-21.245868 37.085292-31.620398 11.806507-9.790049 23.934479-19.22941 35.945554-28.785667 4.032916-3.214643 8.095056-6.341614 13.004692-10.169962z" p-id="33577"></path><path d="M949.693233 748.498309c3.214643 5.347997 6.546182 10.403754 9.410137 15.722527 10.140738 18.703378 13.559949 39.39399 17.154505 59.99693 3.740676 21.567333 4.383604 43.456129 2.98085 65.169582-2.191802 34.396681-5.581789 68.764138-16.365455 101.816513-2.513266 7.744367-6.341614 15.108822-10.023842 22.414829-1.402753 2.776283-3.886796 5.114205-6.283166 7.218335-4.558948 4.003692-11.397371 4.149812-16.423903 0.759825-4.529724-3.068523-6.516958-9.030225-4.851189-14.758134 0.409136-1.344305 0.905945-2.776283 1.694994-3.91602 8.445744-11.806507 11.601939-25.629472 14.816582-39.364766 4.938861-21.099748 7.159887-42.579409 8.85488-64.146741 1.578098-19.989235 1.66577-39.97847-0.263016-59.909257-2.074906-21.450436-6.867647-42.316392-15.722527-62.071835-1.490425-3.331539-3.623779-6.400062-5.87403-10.316082-3.068523 1.95801-5.464893 3.331539-7.715143 4.938861-15.664079 11.397371-32.087983 20.719836-50.820584 26.827657-23.817583 7.744367-48.278094 11.572715-72.797054 14.991927-12.975468 1.81189-26.389297 1.139737-39.569334 0.789048-9.790049-0.263016-19.550875-1.548873-29.282475-2.83473-15.196494-2.016458-30.480661-3.886796-45.501812-6.809199-15.547183-3.039299-31.328158-6.049374-44.157506-16.570024-8.007384-6.575406-7.510575-17.505193 1.081289-22.473277 5.260325-3.039299 10.725218-2.454818 15.780975 0.701377 11.777283 7.364455 24.752752 10.66677 38.458821 11.601939 3.360763 0.233792 6.721526 0.876721 10.053065 1.431977 13.384605 2.25025 26.681537 5.318773 40.153815 6.663079 22.970086 2.279474 45.99862 2.54249 68.734913-2.776283 6.078598-1.431977 12.303316-2.191802 18.469586-3.126971 14.407446-2.191802 27.879723-7.569023 41.673464-11.923403 10.549874-3.360763 18.93717-10.637546 28.259634-16.219336 5.347997-3.185419 10.140738-7.276783 15.401063-10.66677 6.16627-4.003692 9.731601-9.556257 12.011076-16.482352 5.435669-16.5408 4.880413-33.490736 4.06214-50.440672-0.584481-12.303316-1.870338-24.548183-2.893179-36.822275-0.789049-9.351689-3.097747-18.265017-7.335231-26.681537-3.623779-7.130663-6.341614-14.758134-11.601939-21.012076-1.694994-2.016458-3.477659-3.945244-4.880413-5.552566-12.566332 4.442052-24.460511 8.621088-37.348308 13.180037-0.175344 0.555257-0.759825 2.191802-1.139737 3.886795-3.857572 17.622089-7.715143 35.244178-14.495117 52.047994-1.548873 3.857572-2.191802 8.299624-2.279475 12.507884-0.175344 9.293241 4.792741 16.102439 13.472277 19.112514 10.462202 3.623779 21.304316 4.588172 32.234103 3.506884 3.214643-0.321464 6.224718-2.484042 9.322465-3.799124 8.767208-3.740676 17.622089 0.789049 19.200186 9.965393 0.993617 5.669461-1.431977 10.140738-5.757133 13.589173-6.633854 5.289549-14.261326 7.919712-22.736294 8.387296-12.975468 0.701377-25.658696-0.964393-38.16658-4.35438-11.163579-3.039299-19.667771-9.848497-26.798434-18.644929-0.905945-1.110513-1.753442-2.221026-2.659387-3.33154-0.087672-0.116896-0.321464-0.175344-1.110513-0.555256-1.285857 0.759825-3.010075 1.636546-4.558948 2.717834-14.232102 10.053066-30.246869 15.693303-46.963013 20.16458-28.259635 7.598247-56.899182 6.75075-85.684849 5.523341-16.307008-0.701377-32.467895-2.513266-48.161198-6.809199-10.637546-2.893179-21.070524-6.75075-31.26971-10.929786-11.718835-4.792741-23.262326-10.111514-34.630473-15.693303-17.972777-8.825656-32.263327-22.239485-44.683539-37.72822-3.565331-4.442052-6.60463-9.322465-9.760825-14.056757-3.010075-4.529724-2.54249-11.222027 0.876721-15.605631 3.389987-4.295932 9.965393-5.990926 15.605631-3.945244 4.588172 1.66577 8.007384 4.851189 10.286858 8.971777 5.961702 10.842114 14.524342 19.521651 23.963702 27.119897a104.563572 104.563572 0 0 0 20.836732 13.004693c13.852189 6.575406 27.938171 12.829348 42.287169 18.177345 14.43667 5.377221 29.60394 8.328848 45.005002 9.059449 17.475969 0.818273 34.981161 1.461201 52.45713 1.227409 22.765518-0.321464 44.625091-5.727909 65.111135-15.634855 6.516958-3.156195 12.7709-7.452127 18.002001-12.420212 3.828348-3.653003 6.400062-9.001001 8.56264-13.998309 7.042991-16.307008 11.309699-33.461512 14.758134-50.849809 0.204568-1.022841 0.14612-2.074906 0.233792-3.740675-2.337922-0.555257-4.529724-1.022841-6.721526-1.607322-7.948936-2.074906-15.956319-3.91602-23.788359-6.400062-8.095056-2.571714-15.079598-7.189111-21.0413-13.384605-6.078598-6.31239-12.595556-12.215644-15.722527-20.749059-0.905945-2.513266-2.016458-5.055757-2.367146-7.656696-1.315081-9.351689-2.659387-18.732602-3.47766-28.142738-1.168961-13.267709 2.659387-25.571024 9.205569-36.880724 8.12428-13.969085 20.836732-20.74906 36.851499-21.012076 20.45682-0.321464 40.650623 1.899562 60.347618 7.744368 16.423904 4.880413 32.847807 9.760825 49.213263 14.87503 11.981851 3.740676 20.661388 15.547183 21.362764 28.113515 0.43836 7.832039-0.584481 15.430287-3.740675 22.531725-3.974468 8.942553-8.591864 17.622089-12.946245 26.418521-0.789049 1.578098-1.753442 3.039299-2.805506 4.821965 1.110513 1.373529 2.016458 2.659387 3.097747 3.828348 5.231101 5.698685 9.760825 11.777283 12.712452 19.054066 1.607322 3.91602 4.266708 7.393679 6.341614 11.163578 6.60463 11.952627 9.877721 24.95732 10.871338 38.400373 1.519649 20.807508 4.179036 41.585792 3.506883 62.53942-0.496808 15.897871-3.623779 31.182038-10.257633 45.677155-0.43836 0.964393-0.847497 1.95801-1.256634 2.951627-0.116896 0.321464-0.087672 0.701377-0.175344 1.431977zM1097.333022 935.006055c1.227409 1.870338 2.045682 3.389987 3.126971 4.705069 8.533416 10.286858 14.58279 21.976469 19.755443 34.221336 1.607322 3.7699 3.799124 7.335231 5.055757 11.222027 1.198185 3.653003 2.221026 7.627471 2.045682 11.397371-0.321464 6.31239-5.640237 11.280475-11.74806 12.127971-5.932478 0.818273-11.572715-2.484042-14.144429-8.387296-2.571714-5.87403-5.231101-11.748059-7.569023-17.70976-5.377221-13.676845-14.056757-25.191112-23.320774-36.354691-0.642929-0.759825-1.578098-1.315081-2.980851-2.425594-0.730601 2.133354-1.285857 3.740676-1.81189 5.377221-3.331539 9.994618-6.60463 20.018459-9.994618 29.983852-1.841114 5.347997-5.377221 9.205569-10.754442 11.222027-5.318773 1.95801-11.163579 0.701377-14.72891-3.389987-3.886796-4.442052-4.880413-9.585481-2.279474-14.933478 10.95901-22.590174 16.219335-46.875341 20.632164-71.277404 1.490425-8.328848 0.526033-17.096056 0.467584-25.658697 0-1.490425-0.876721-3.068523-1.636545-4.442052-4.792741-8.679536-2.776283-16.39468 5.727909-21.450437 1.519649-0.905945 3.126971-1.694994 5.201877-2.805506 2.39637-8.299624 9.293241-10.988234 17.2714-12.507884 6.137046-1.168961 12.098748-3.214643 18.235794-4.35438 20.339923-3.7699 37.465204 5.990926 44.33285 25.483352 4.091364 11.631163 5.494117 23.729911 3.039299 35.887106-2.337922 11.601939-8.474968 21.362764-17.797433 28.493427-6.45851 4.968085-13.881413 8.650312-20.924404 12.887797-1.490425 0.905945-3.068523 1.607322-5.172653 2.717834z m-20.719836-25.366456c2.454818 0 4.588172 0.379912 6.575407-0.058448 10.37453-2.279474 19.404754-7.159887 26.272401-15.342615 2.221026-2.630163 4.091364-6.078598 4.675844-9.410137 1.256633-7.072215 0.379912-14.261326-2.133354-21.0413-1.490425-4.003692-4.120588-7.218335-8.942552-7.247559-9.234793-0.087672-17.475969 4.149812-26.447746 5.552566v47.547493zM359.367871 200.518563c1.285857 15.517959-3.010075 30.100749-7.393679 44.625091-0.701377 2.367146-1.724218 4.734293-3.010075 6.809198a13.59794 13.59794 0 0 1-16.862264 5.318773c-5.961702-2.571714-9.264017-8.767208-7.715144-15.371839 1.607322-6.926095 3.565331-13.793741 5.494117-20.661387 3.039299-10.871338 2.191802-21.947245 1.461202-32.964704-0.613705-9.410137-2.045682-18.761826-3.097747-28.113514-0.642929-5.844806 3.302315-12.069524 8.767208-13.881414 6.02015-2.016458 12.858572 0.43836 16.423904 5.844806 3.243867 4.997309 3.857572 10.725218 4.266708 16.39468 0.759825 10.66677 1.168961 21.33354 1.724218 32.029534zM1138.042093 1004.208553c0.087672-7.335231 5.552565-12.683228 12.946244-12.712452 7.481351 0 13.180037 5.757133 13.033917 13.238485-0.14612 7.247559-5.757133 12.741676-13.033917 12.712452-7.598247 0-13.033916-5.611013-12.946244-13.238485z" p-id="33578"></path></svg>