<svg width="24px" height="24px" viewBox="0 0 0.72 0.72" fill="none" xmlns="http://www.w3.org/2000/svg"><path d="M0.12 0.12a0.03 0.03 0 0 1 0.03 -0.03h0.288a0.03 0.03 0 0 1 0.021 0.009l0.132 0.132a0.03 0.03 0 0 1 0.009 0.021V0.6a0.03 0.03 0 0 1 -0.03 0.03H0.15a0.03 0.03 0 0 1 -0.03 -0.03z" stroke="currentColor" stroke-width="0.06" stroke-linecap="round"/><path d="M0.6 0.24h-0.15V0.09" stroke="currentColor" stroke-width="0.06" stroke-linecap="round" stroke-linejoin="round"/><path d="M0.225 0.39H0.21v0.12h0.015a0.06 0.06 0 1 0 0 -0.12" stroke="currentColor" stroke-width="0.045" stroke-linecap="round" stroke-linejoin="round"/><path d="M0.525 0.39H0.51a0.03 0.03 0 0 0 -0.03 0.03v0.06a0.03 0.03 0 0 0 0.03 0.03h0.015" stroke="currentColor" stroke-width="0.045" stroke-linecap="round" stroke-linejoin="round"/><path d="M0.345 0.42a0.03 0.03 0 0 1 0.03 -0.03h0.015a0.03 0.03 0 0 1 0.03 0.03v0.06a0.03 0.03 0 0 1 -0.03 0.03h-0.015a0.03 0.03 0 0 1 -0.03 -0.03z" stroke="currentColor" stroke-width="0.045" stroke-linecap="round" stroke-linejoin="round"/></svg>