<svg xmlns="http://www.w3.org/2000/svg" viewBox="0 0 30 30">
  <g transform="translate(-34 -143)" fill="currentColor">
    <path d="M80.895,94.282l-9.66-9.655-.648-.648a.788.788,0,0,0-1.11,0l-10.308,10.3a1.6,1.6,0,0,0-.47,1.15,1.616,1.616,0,0,0,1.623,1.583h1.063v8.143h17.3V97.014h1.085a1.6,1.6,0,0,0,1.13-2.733Zm-9.463,9.075h-2.8v-5.1h2.8Zm5.448-8.143v8.143H73.032v-5.7a1,1,0,0,0-1-1h-4a1,1,0,0,0-1,1v5.7H63.184V95.214h-2.4l9.25-9.243.578.578,8.67,8.665Z" transform="translate(-21.032 63.547)" fill="currentColor"/>
  </g>
</svg>
