<svg fill="currentColor" width="24px" height="24px" viewBox="0 0 1.08 1.08" version="1.1" preserveAspectRatio="xMidYMid meet" xmlns="http://www.w3.org/2000/svg" xmlns:xlink="http://www.w3.org/1999/xlink"><path class="clr-i-outline clr-i-outline-path-1" d="m1.011 0.519 -0.45 -0.45a0.03 0.03 0 0 0 -0.042 0l-0.45 0.45a0.03 0.03 0 0 0 0.042 0.042L0.54 0.132l0.429 0.429a0.03 0.03 0 0 0 0.042 -0.042Z"/><path class="clr-i-outline clr-i-outline-path-2" d="M0.84 0.96h-0.15V0.66H0.39v0.3H0.24V0.54l-0.06 0.06v0.36a0.06 0.06 0 0 0 0.06 0.06h0.21V0.72h0.18v0.3h0.21a0.06 0.06 0 0 0 0.06 -0.06V0.593l-0.06 -0.06Z"/><path x="0" y="0" width="36" height="36" fill-opacity="0" d="M0 0H1.08V1.08H0V0z"/></svg>