<svg width="24px" height="24px" fill="currentColor" viewBox="0 0 0.72 0.72" xmlns="http://www.w3.org/2000/svg"><path d="M0.24 0.45H0.105A0.075 0.075 0 0 1 0.03 0.375v-0.27A0.075 0.075 0 0 1 0.105 0.03h0.27A0.075 0.075 0 0 1 0.45 0.105V0.24h-0.03V0.105A0.045 0.045 0 0 0 0.375 0.06h-0.27A0.045 0.045 0 0 0 0.06 0.105v0.27A0.045 0.045 0 0 0 0.105 0.42H0.24zm-0.001 -0.144a0.294 0.294 0 0 1 -0.113 0.054l-0.007 -0.029a0.264 0.264 0 0 0 0.098 -0.046A0.278 0.278 0 0 1 0.147 0.15H0.12V0.12h0.098l-0.016 -0.016 0.021 -0.021L0.261 0.12H0.36v0.03h-0.027A0.294 0.294 0 0 1 0.293 0.245a0.115 0.115 0 0 0 -0.055 0.061zm0.001 -0.041A0.245 0.245 0 0 0 0.302 0.15H0.178a0.246 0.246 0 0 0 0.062 0.114M0.69 0.613v-0.267A0.076 0.076 0 0 0 0.615 0.27h-0.268A0.077 0.077 0 0 0 0.27 0.347v0.267A0.077 0.077 0 0 0 0.347 0.69h0.267A0.077 0.077 0 0 0 0.69 0.613M0.615 0.3A0.046 0.046 0 0 1 0.66 0.345v0.269A0.046 0.046 0 0 1 0.615 0.66h-0.269A0.046 0.046 0 0 1 0.3 0.615v-0.269A0.046 0.046 0 0 1 0.345 0.3zm-0.063 0.24h-0.144l-0.035 0.067 -0.027 -0.014L0.48 0.336l0.133 0.257 -0.027 0.014zm-0.016 -0.03L0.48 0.402 0.424 0.51z"/></svg>