<svg width="24px" height="24px" viewBox="0 0 0.72 0.72" fill="none" xmlns="http://www.w3.org/2000/svg"><path d="M0.099 0.157a0.078 0.078 0 0 1 0.058 -0.058 0.166 0.166 0 0 1 0.076 0 0.078 0.078 0 0 1 0.058 0.058c0.006 0.025 0.006 0.051 0 0.076a0.078 0.078 0 0 1 -0.058 0.058c-0.025 0.006 -0.051 0.006 -0.076 0a0.078 0.078 0 0 1 -0.058 -0.058 0.166 0.166 0 0 1 0 -0.076Z" stroke="currentColor" stroke-width="0.045"/><path d="M0.099 0.487a0.078 0.078 0 0 1 0.058 -0.058 0.166 0.166 0 0 1 0.076 0 0.078 0.078 0 0 1 0.058 0.058c0.006 0.025 0.006 0.051 0 0.076a0.078 0.078 0 0 1 -0.058 0.058c-0.025 0.006 -0.051 0.006 -0.076 0a0.078 0.078 0 0 1 -0.058 -0.058 0.166 0.166 0 0 1 0 -0.076Z" stroke="currentColor" stroke-width="0.045"/><path d="M0.429 0.157a0.078 0.078 0 0 1 0.058 -0.058 0.166 0.166 0 0 1 0.076 0 0.078 0.078 0 0 1 0.058 0.058c0.006 0.025 0.006 0.051 0 0.076a0.078 0.078 0 0 1 -0.058 0.058c-0.025 0.006 -0.051 0.006 -0.076 0a0.078 0.078 0 0 1 -0.058 -0.058 0.166 0.166 0 0 1 0 -0.076Z" stroke="currentColor" stroke-width="0.045"/><path d="M0.429 0.487a0.078 0.078 0 0 1 0.058 -0.058 0.166 0.166 0 0 1 0.076 0 0.078 0.078 0 0 1 0.058 0.058c0.006 0.025 0.006 0.051 0 0.076a0.078 0.078 0 0 1 -0.058 0.058c-0.025 0.006 -0.051 0.006 -0.076 0a0.078 0.078 0 0 1 -0.058 -0.058 0.166 0.166 0 0 1 0 -0.076Z" stroke="currentColor" stroke-width="0.045"/></svg>