<svg fill="currentColor" width="24px" height="24px" viewBox="0 0 1.08 1.08" version="1.1" xmlns="http://www.w3.org/2000/svg" xmlns:xlink="http://www.w3.org/1999/xlink"><path class="clr-i-outline clr-i-outline-path-1" d="M0.975 0.835A0.432 0.432 0 0 1 0.9 0.747a0.378 0.378 0 0 1 -0.041 -0.144v-0.148A0.324 0.324 0 0 0 0.576 0.132V0.093a0.04 0.04 0 1 0 -0.08 0v0.039a0.324 0.324 0 0 0 -0.28 0.322v0.148a0.378 0.378 0 0 1 -0.041 0.144 0.432 0.432 0 0 1 -0.074 0.088 0.03 0.03 0 0 0 -0.01 0.022v0.041a0.03 0.03 0 0 0 0.03 0.03h0.834a0.03 0.03 0 0 0 0.03 -0.03v-0.041a0.03 0.03 0 0 0 -0.01 -0.022M0.154 0.868a0.486 0.486 0 0 0 0.073 -0.09 0.426 0.426 0 0 0 0.049 -0.175v-0.148a0.262 0.262 0 1 1 0.524 0v0.148a0.426 0.426 0 0 0 0.049 0.175 0.486 0.486 0 0 0 0.073 0.09Z"/><path class="clr-i-outline clr-i-outline-path-2" d="M0.54 1.028A0.08 0.08 0 0 0 0.617 0.96h-0.158A0.08 0.08 0 0 0 0.54 1.028"/><path x="0" y="0" width="36" height="36" fill-opacity="0" d="M0 0H1.08V1.08H0V0z"/></svg>